# xmcd
#
# Track frame offsets: 
#        150
#        18042
#        44285
#        62680
#        76992
#        95427
#        117262
#        134126
#        149793
#        169073
#
# Disc length: 2541 seconds
#
# Revision: 0
# Processed by: cddbd v1.5.2PL0 Copyright (c) Steve Scherf et al.
# Submitted via: ExactAudioCopy v0.99pb4
#
DISCID=8909eb0a
DTITLE=Johnny Smith - Alias Smith
DYEAR=1997
DGENRE=Blues
TTITLE0=Our Love Is Like A Rock
TTITLE1=One of Me One of You
TTITLE2=Magic City of Love
TTITLE3=Nightstalkgirl
TTITLE4=Noises
TTITLE5=Woman In Your Life
TTITLE6=Dreams
TTITLE7=Natural Thing
TTITLE8=Chasing the Blues
TTITLE9=Alone
EXTD=
EXTT0=
EXTT1=
EXTT2=
EXTT3=
EXTT4=
EXTT5=
EXTT6=
EXTT7=
EXTT8=
EXTT9=
PLAYORDER=
